<?xml version="1.0" encoding="UTF-8" standalone="no"?>
<svg
   xmlns:dc="http://purl.org/dc/elements/1.1/"
   xmlns:cc="http://creativecommons.org/ns#"
   xmlns:rdf="http://www.w3.org/1999/02/22-rdf-syntax-ns#"
   xmlns:svg="http://www.w3.org/2000/svg"
   xmlns="http://www.w3.org/2000/svg"
   id="svg3799"
   version="1.1"
   preserveAspectRatio="xMinYMin meet"
   viewBox="0 0 400 400"
   height="400"
   width="400">
  <metadata
     id="metadata3805">
    <rdf:RDF>
      <cc:Work
         rdf:about="">
        <dc:format>image/svg+xml</dc:format>
        <dc:type
           rdf:resource="http://purl.org/dc/dcmitype/StillImage" />
        <dc:title></dc:title>
      </cc:Work>
    </rdf:RDF>
  </metadata>
  <defs
     id="defs3803" />
  <path
     id="svgEditorBackground"
     d="M 0,0 H 1200 V 400 H 0 Z"
     style="fill:none;stroke:none" />
  <path
     id="e1_circle"
     d="M 385,205 A 180,180 0 0 1 205,385 180,180 0 0 1 25,205 180,180 0 0 1 205,25 180,180 0 0 1 385,205 Z"
     style="fill:#0099ff" />
  <path
     id="e2_circle"
     d="M 331,205 A 126,126 0 0 1 205,331 126,126 0 0 1 79,205 126,126 0 0 1 205,79 126,126 0 0 1 331,205 Z"
     style="fill:#ffffff" />
</svg>
