<?xml version="1.0" encoding="UTF-8" standalone="no"?>
<svg
   width="514"
   height="210"
   viewBox="0 0 514 210"
   fill="none"
   version="1.1"
   id="svg8"
   sodipodi:docname="logo.svg"
   inkscape:version="1.2 (dc2aedaf03, 2022-05-15)"
   xmlns:inkscape="http://www.inkscape.org/namespaces/inkscape"
   xmlns:sodipodi="http://sodipodi.sourceforge.net/DTD/sodipodi-0.dtd"
   xmlns="http://www.w3.org/2000/svg"
   xmlns:svg="http://www.w3.org/2000/svg">
  <defs
     id="defs12" />
  <sodipodi:namedview
     id="namedview10"
     pagecolor="#ffffff"
     bordercolor="#000000"
     borderopacity="0.25"
     inkscape:showpageshadow="2"
     inkscape:pageopacity="0.0"
     inkscape:pagecheckerboard="0"
     inkscape:deskcolor="#d1d1d1"
     showgrid="false"
     inkscape:zoom="2.1080139"
     inkscape:cx="287"
     inkscape:cy="104.83802"
     inkscape:window-width="2560"
     inkscape:window-height="1369"
     inkscape:window-x="-8"
     inkscape:window-y="1072"
     inkscape:window-maximized="1"
     inkscape:current-layer="svg8" />
  <path
     d="m 246.259,46.8267 0.287,-5.8012 c 0,-0.9152 -0.723,-1.9928 -2.169,-3.2327 -1.432,-1.24 -2.709,-2.2142 -3.831,-2.9228 -2.598,-1.6385 -5.381,-2.4577 -8.348,-2.4577 -2.952,0 -5.55,1.0849 -7.794,3.2549 -2.228,2.1699 -3.343,4.9155 -3.343,8.2368 0,3.3065 1.417,6.0226 4.251,8.1482 1.831,1.3728 4.953,2.8785 9.366,4.517 4.429,1.6385 7.521,2.9154 9.278,3.8306 3.749,1.9927 6.34,4.4357 7.772,7.329 1.018,2.0666 1.527,4.325 1.527,6.7754 0,2.4504 -0.391,4.6425 -1.173,6.5762 -0.768,1.9337 -1.816,3.6018 -3.144,5.0041 -1.329,1.3875 -2.871,2.5832 -4.628,3.587 -3.498,1.978 -7.381,2.967 -11.647,2.967 -5.343,0 -10.214,-0.7676 -14.613,-2.3028 -2.377,-0.8266 -3.587,-1.5573 -3.632,-2.192 -0.029,-0.6495 -0.132,-2.0887 -0.31,-4.3177 -0.383,-5.1369 -0.575,-7.9637 -0.575,-8.4804 0,-0.5166 0.007,-0.834 0.022,-0.9521 0.015,-0.1181 0.066,-0.2509 0.155,-0.3986 0.133,-0.2657 0.524,-0.3985 1.173,-0.3985 h 0.443 c 0.62,0 1.056,0.1107 1.307,0.3321 0.251,0.2067 0.391,0.5979 0.42,1.1735 l 0.554,8.5247 c 0.059,0.7528 1.033,1.5647 2.923,2.4356 1.904,0.871 4.096,1.5943 6.576,2.17 2.494,0.5756 4.701,0.8635 6.62,0.8635 1.919,0 3.779,-0.4576 5.58,-1.3728 1.801,-0.93 3.24,-2.2216 4.318,-3.8749 1.092,-1.6532 1.638,-3.3286 1.638,-5.0262 0,-1.6975 -0.28,-3.1368 -0.841,-4.3177 -0.546,-1.1809 -1.218,-2.1773 -2.015,-2.9892 -0.797,-0.8118 -1.89,-1.6089 -3.277,-2.3913 -1.919,-1.1071 -4.089,-2.133 -6.51,-3.0777 -2.406,-0.9595 -3.941,-1.5721 -4.605,-1.8378 -0.665,-0.2805 -1.602,-0.6938 -2.812,-1.24 -1.196,-0.5461 -2.126,-1.0185 -2.79,-1.4171 -0.665,-0.3985 -1.499,-0.9225 -2.502,-1.572 -0.989,-0.6643 -1.764,-1.2916 -2.325,-1.8821 -0.561,-0.6052 -1.181,-1.3285 -1.86,-2.1699 -0.664,-0.8562 -1.166,-1.7271 -1.506,-2.6128 -0.826,-2.1551 -1.24,-4.207 -1.24,-6.1554 0,-1.9633 0.259,-3.7273 0.775,-5.292 0.517,-1.5647 1.225,-2.9744 2.126,-4.2291 0.9,-1.2695 1.97,-2.4282 3.21,-3.4763 1.255,-1.0481 2.606,-1.9263 4.052,-2.6349 3.056,-1.4614 5.92,-2.1921 8.591,-2.1921 2.687,0 5.005,0.251 6.953,0.7529 1.949,0.5019 3.639,1.2621 5.071,2.2806 1.446,1.0038 2.339,1.5057 2.679,1.5057 0.162,0 0.273,-0.4503 0.332,-1.3507 0.074,-0.9004 0.192,-1.4319 0.354,-1.5942 0.177,-0.1624 0.664,-0.2436 1.462,-0.2436 0.797,0 1.306,0.0812 1.527,0.2436 0.222,0.1623 0.332,0.5978 0.332,1.3064 l -0.553,14.4144 c 0,0.6347 -0.089,1.0554 -0.266,1.2621 -0.177,0.1919 -0.649,0.2878 -1.417,0.2878 -0.767,0 -1.284,-0.1033 -1.55,-0.31 -0.266,-0.2066 -0.398,-0.5609 -0.398,-1.0628 z m 16.451,-13.2409 -5.358,0.6421 c -0.355,0 -0.532,-0.4059 -0.532,-1.2178 0,-0.8266 0.03,-1.3285 0.089,-1.5056 0.074,-0.1919 0.797,-0.3838 2.17,-0.5757 1.387,-0.2067 3.594,-0.4945 6.62,-0.8636 3.041,-0.369 4.731,-0.5535 5.071,-0.5535 0.339,0 0.546,0.0812 0.62,0.2435 0.074,0.1624 0.111,0.3986 0.111,0.7086 0,0.2952 -0.06,1.9337 -0.178,4.9155 -0.369,9.3439 -0.553,15.7208 -0.553,19.1307 0,3.4099 0.015,5.1369 0.044,5.1812 0.03,0.0295 0.546,-0.2288 1.55,-0.7749 1.004,-0.5462 2.672,-1.1957 5.004,-1.9485 2.347,-0.7676 4.333,-1.1514 5.956,-1.1514 1.624,0 3.012,0.1845 4.163,0.5535 1.166,0.3691 2.148,0.8562 2.945,1.4614 0.797,0.6052 1.483,1.3876 2.059,2.347 0.591,0.9595 1.056,1.9412 1.395,2.9449 0.34,1.0038 0.613,2.1921 0.819,3.5649 0.31,2.1699 0.465,4.8343 0.465,7.9933 v 7.7054 c 0,4.0446 0.096,6.0669 0.288,6.0669 h 3.078 c 0.546,0 0.893,0.1107 1.041,0.3321 0.147,0.2214 0.221,0.5978 0.221,1.1292 0,1.0186 -0.421,1.5278 -1.262,1.5278 l -6.709,-0.1771 -7.993,0.1771 c -0.576,0 -0.93,-0.1107 -1.063,-0.3321 -0.133,-0.2066 -0.2,-0.5831 -0.2,-1.1292 0,-0.561 0.067,-0.9521 0.2,-1.1736 0.133,-0.2361 0.428,-0.3542 0.885,-0.3542 h 4.362 c 0.296,0 0.443,-3.1073 0.443,-9.3218 0,-6.2293 -0.103,-9.9196 -0.31,-11.071 -0.206,-1.1661 -0.531,-2.2363 -0.974,-3.2106 -0.443,-0.989 -0.989,-1.8378 -1.638,-2.5463 -1.388,-1.4909 -3.351,-2.2364 -5.89,-2.2364 -2.524,0 -5.056,0.6348 -7.595,1.9042 -0.856,0.4281 -1.284,0.7898 -1.284,1.085 0.074,11.012 0.111,18.0014 0.111,20.9685 0,2.9522 0.118,4.4284 0.354,4.4284 h 4.162 c 0.532,0 0.864,0.1107 0.997,0.3321 0.133,0.2067 0.199,0.5166 0.199,0.93 0,0.3985 -0.007,0.6642 -0.022,0.7971 -0.015,0.1328 -0.059,0.2804 -0.133,0.4428 -0.133,0.3248 -0.48,0.4871 -1.041,0.4871 l -7.793,-0.1771 -7.972,0.1771 c -0.782,0 -1.203,-0.2804 -1.262,-0.8414 -0.014,-0.1476 -0.022,-0.3764 -0.022,-0.6864 0,-0.9742 0.458,-1.4613 1.373,-1.4613 h 3.897 c 0.236,0 0.354,-4.303 0.354,-12.9088 0,-17.8907 -0.133,-29.3012 -0.398,-34.2315 -0.266,-4.9303 -0.428,-7.4471 -0.487,-7.5505 -0.06,-0.118 -0.185,-0.1771 -0.377,-0.1771 z m 45.258,25.3969 -4.45,0.0885 c -0.487,0 -0.731,-0.1476 -0.731,-0.4428 0,-1.4318 0.362,-2.1921 1.085,-2.2806 0.103,-0.0148 0.177,-0.0222 0.222,-0.0222 0.265,-0.0442 1.771,-0.1254 4.516,-0.2435 2.761,-0.1181 4.599,-0.1772 5.514,-0.1772 0.915,0 1.402,0.0591 1.461,0.1772 0.059,0.1033 0.089,0.3173 0.089,0.6421 v 24.6662 c 0,3.8674 3.262,5.8012 9.787,5.8012 1.682,0 3.432,-0.1181 5.247,-0.3543 1.831,-0.2509 2.746,-0.524 2.746,-0.8192 V 75.3013 c 0,-11.0562 -0.244,-16.5843 -0.731,-16.5843 l -4.539,0.1771 c -0.487,0 -0.731,-0.0886 -0.731,-0.2657 0,-1.3138 0.126,-2.0518 0.377,-2.2142 0.251,-0.1624 0.583,-0.2436 0.996,-0.2436 l 10.518,-0.4428 c 0.605,0 0.907,0.1476 0.907,0.4428 v 0.3765 c -0.059,14.4365 -0.088,22.9833 -0.088,25.6404 0,2.6423 0.037,4.3103 0.111,5.0041 0.088,0.6938 0.228,1.1587 0.42,1.3949 0.192,0.2214 0.495,0.3322 0.908,0.3322 l 3.986,-0.5536 c 0.369,0 0.553,0.369 0.553,1.1071 0,0.7381 -0.052,1.1883 -0.155,1.3507 -0.103,0.1476 -2.096,0.5018 -5.978,1.0628 -3.868,0.5609 -5.86,0.8414 -5.979,0.8414 -0.118,0 -0.214,-0.7676 -0.287,-2.3028 -0.074,-1.5499 -0.133,-2.3249 -0.177,-2.3249 -0.03,0 -0.347,0.1476 -0.953,0.4428 -0.59,0.2805 -1.387,0.6274 -2.391,1.0407 -0.989,0.3986 -2.081,0.7971 -3.277,1.1957 -4.65,1.5942 -8.591,1.9337 -11.824,1.0185 -4.236,-1.2104 -6.355,-5.1665 -6.355,-11.8681 V 65.6917 c 0,-4.4727 -0.265,-6.709 -0.797,-6.709 z m 70.611,33.2794 0.089,-3.2549 c 0,-0.4576 -0.332,-0.4871 -0.997,-0.0885 -3.793,2.3618 -7.447,3.5427 -10.96,3.5427 -6.967,0 -11.779,-2.849 -14.437,-8.5468 -1.195,-2.5537 -1.793,-5.3879 -1.793,-8.5026 0,-3.1146 0.48,-5.8012 1.439,-8.0596 0.96,-2.2585 2.259,-4.1923 3.897,-5.8013 3.558,-3.4689 8.001,-5.2033 13.33,-5.2033 2.863,0 5.794,0.6864 8.79,2.0592 0.34,0.1476 0.561,0.2214 0.664,0.2214 0.118,0 0.177,-1.1514 0.177,-3.4541 0,-2.3028 -0.11,-6.5762 -0.332,-12.8203 -0.206,-6.2588 -0.435,-9.3882 -0.686,-9.3882 l -6.067,0.7971 c -0.399,0 -0.554,-0.2952 -0.465,-0.8856 0.089,-0.5905 0.14,-0.9595 0.155,-1.1071 0.03,-0.1624 0.044,-0.2731 0.044,-0.3322 0.015,-0.059 0.03,-0.1328 0.045,-0.2214 0.029,-0.1033 0.051,-0.1697 0.066,-0.1993 0.03,-0.0442 0.059,-0.0885 0.089,-0.1328 0.029,-0.0591 0.073,-0.096 0.132,-0.1107 0.104,-0.0295 0.606,-0.096 1.506,-0.1993 0.915,-0.1033 2.377,-0.2952 4.384,-0.5757 2.008,-0.2805 3.631,-0.5093 4.871,-0.6864 1.255,-0.1771 2.06,-0.2657 2.414,-0.2657 0.369,0 0.553,0.3395 0.553,1.0185 0,0.6791 -0.044,2.7752 -0.132,6.2884 -0.281,11.13 -0.421,20.8946 -0.421,29.2938 0,8.3845 0.037,14.1488 0.111,17.2929 0.088,3.1442 0.258,5.0189 0.509,5.6241 0.251,0.5904 0.767,0.8857 1.55,0.8857 0.074,0 0.317,-0.0296 0.731,-0.0886 l 1.394,-0.1993 c 0.517,-0.0738 0.908,-0.1402 1.174,-0.1993 0.59,-0.1033 0.886,0.0738 0.886,0.5314 0,0.4429 -0.008,0.7676 -0.022,0.9743 0,0.1919 -0.023,0.4133 -0.067,0.6643 -0.103,0.4871 -0.347,0.7454 -0.731,0.7749 -7.144,0.9595 -10.871,1.4393 -11.181,1.4393 -0.296,0 -0.487,-0.0739 -0.576,-0.2215 -0.089,-0.1476 -0.133,-0.4354 -0.133,-0.8635 z M 359.825,65.1603 c -0.723,1.2695 -1.27,2.657 -1.639,4.1627 -0.369,1.4909 -0.553,3.1737 -0.553,5.0484 0,1.8599 0.258,3.6608 0.775,5.4026 0.516,1.7271 1.306,3.2549 2.369,4.5834 2.214,2.7899 5.668,4.1848 10.362,4.1848 1.344,0 2.953,-0.3026 4.827,-0.9078 1.875,-0.6052 2.812,-1.203 2.812,-1.7935 V 63.1675 c 0,-0.5609 -0.597,-1.2547 -1.793,-2.0813 -2.303,-1.5795 -4.384,-2.3692 -6.244,-2.3692 -1.845,0 -3.439,0.2731 -4.783,0.8192 -1.343,0.5462 -2.517,1.299 -3.52,2.2585 -1.004,0.9595 -1.875,2.0814 -2.613,3.3656 z m 64.012,27.1018 0.089,-3.2549 c 0,-0.4576 -0.332,-0.4871 -0.996,-0.0885 -3.794,2.3618 -7.447,3.5427 -10.961,3.5427 -6.967,0 -11.779,-2.849 -14.436,-8.5468 -1.196,-2.5537 -1.794,-5.3879 -1.794,-8.5026 0,-3.1146 0.48,-5.8012 1.439,-8.0596 0.96,-2.2585 2.259,-4.1923 3.897,-5.8013 3.558,-3.4689 8.001,-5.2033 13.33,-5.2033 2.864,0 5.794,0.6864 8.79,2.0592 0.34,0.1476 0.561,0.2214 0.665,0.2214 0.118,0 0.177,-1.1514 0.177,-3.4541 0,-2.3028 -0.111,-6.5762 -0.332,-12.8203 -0.207,-6.2588 -0.436,-9.3882 -0.687,-9.3882 l -6.067,0.7971 c -0.398,0 -0.553,-0.2952 -0.465,-0.8856 0.089,-0.5905 0.141,-0.9595 0.155,-1.1071 0.03,-0.1624 0.045,-0.2731 0.045,-0.3322 0.014,-0.059 0.029,-0.1328 0.044,-0.2214 0.029,-0.1033 0.051,-0.1697 0.066,-0.1993 0.03,-0.0442 0.059,-0.0885 0.089,-0.1328 0.029,-0.0591 0.074,-0.096 0.133,-0.1107 0.103,-0.0295 0.605,-0.096 1.505,-0.1993 0.916,-0.1033 2.377,-0.2952 4.384,-0.5757 2.008,-0.2805 3.632,-0.5093 4.872,-0.6864 1.254,-0.1771 2.059,-0.2657 2.413,-0.2657 0.369,0 0.554,0.3395 0.554,1.0185 0,0.6791 -0.045,2.7752 -0.133,6.2884 -0.281,11.13 -0.421,20.8946 -0.421,29.2938 0,8.3845 0.037,14.1488 0.111,17.2929 0.088,3.1442 0.258,5.0189 0.509,5.6241 0.251,0.5904 0.768,0.8857 1.55,0.8857 0.074,0 0.317,-0.0296 0.731,-0.0886 l 1.395,-0.1993 c 0.516,-0.0738 0.908,-0.1402 1.173,-0.1993 0.591,-0.1033 0.886,0.0738 0.886,0.5314 0,0.4429 -0.007,0.7676 -0.022,0.9743 0,0.1919 -0.022,0.4133 -0.067,0.6643 -0.103,0.4871 -0.347,0.7454 -0.73,0.7749 -7.145,0.9595 -10.872,1.4393 -11.182,1.4393 -0.295,0 -0.487,-0.0739 -0.576,-0.2215 -0.088,-0.1476 -0.133,-0.4354 -0.133,-0.8635 z M 405.083,65.1603 c -0.723,1.2695 -1.269,2.657 -1.638,4.1627 -0.369,1.4909 -0.554,3.1737 -0.554,5.0484 0,1.8599 0.258,3.6608 0.775,5.4026 0.517,1.7271 1.306,3.2549 2.369,4.5834 2.214,2.7899 5.669,4.1848 10.363,4.1848 1.343,0 2.952,-0.3026 4.827,-0.9078 1.874,-0.6052 2.812,-1.203 2.812,-1.7935 V 63.1675 c 0,-0.5609 -0.598,-1.2547 -1.794,-2.0813 -2.303,-1.5795 -4.384,-2.3692 -6.244,-2.3692 -1.845,0 -3.439,0.2731 -4.783,0.8192 -1.343,0.5462 -2.516,1.299 -3.52,2.2585 -1.004,0.9595 -1.875,2.0814 -2.613,3.3656 z m 39.989,-31.5745 -5.359,0.6421 c -0.354,0 -0.531,-0.4059 -0.531,-1.2178 0,-0.8266 0.029,-1.3285 0.088,-1.5056 0.074,-0.1919 0.798,-0.3838 2.17,-0.5757 1.388,-0.2067 3.595,-0.4945 6.621,-0.8636 3.041,-0.369 4.731,-0.5535 5.07,-0.5535 0.34,0 0.546,0.0812 0.62,0.2435 0.074,0.1624 0.111,0.3986 0.111,0.7086 0,0.2952 -0.059,1.9337 -0.177,4.9155 -0.369,9.3439 -0.554,15.7208 -0.554,19.1307 0,3.4099 0.015,5.1369 0.045,5.1812 0.029,0.0295 0.546,-0.2288 1.55,-0.7749 1.003,-0.5462 2.671,-1.1957 5.004,-1.9485 2.347,-0.7676 4.332,-1.1514 5.956,-1.1514 1.624,0 3.011,0.1845 4.162,0.5535 1.167,0.3691 2.148,0.8562 2.945,1.4614 0.797,0.6052 1.484,1.3876 2.06,2.347 0.59,0.9595 1.055,1.9412 1.395,2.9449 0.339,1.0038 0.612,2.1921 0.819,3.5649 0.31,2.1699 0.465,4.8343 0.465,7.9933 v 7.7054 c 0,4.0446 0.096,6.0669 0.288,6.0669 h 3.077 c 0.547,0 0.893,0.1107 1.041,0.3321 0.148,0.2214 0.221,0.5978 0.221,1.1292 0,1.0186 -0.42,1.5278 -1.262,1.5278 l -6.709,-0.1771 -7.993,0.1771 c -0.576,0 -0.93,-0.1107 -1.063,-0.3321 -0.133,-0.2066 -0.199,-0.5831 -0.199,-1.1292 0,-0.561 0.066,-0.9521 0.199,-1.1736 0.133,-0.2361 0.428,-0.3542 0.886,-0.3542 h 4.362 c 0.295,0 0.443,-3.1073 0.443,-9.3218 0,-6.2293 -0.104,-9.9196 -0.31,-11.071 -0.207,-1.1661 -0.532,-2.2363 -0.975,-3.2106 -0.442,-0.989 -0.989,-1.8378 -1.638,-2.5463 -1.388,-1.4909 -3.351,-2.2364 -5.89,-2.2364 -2.524,0 -5.056,0.6348 -7.594,1.9042 -0.857,0.4281 -1.285,0.7898 -1.285,1.085 0.074,11.012 0.111,18.0014 0.111,20.9685 0,2.9522 0.118,4.4284 0.354,4.4284 h 4.163 c 0.531,0 0.863,0.1107 0.996,0.3321 0.133,0.2067 0.2,0.5166 0.2,0.93 0,0.3985 -0.008,0.6642 -0.023,0.7971 -0.014,0.1328 -0.059,0.2804 -0.132,0.4428 -0.133,0.3248 -0.48,0.4871 -1.041,0.4871 l -7.794,-0.1771 -7.971,0.1771 c -0.782,0 -1.203,-0.2804 -1.262,-0.8414 -0.015,-0.1476 -0.022,-0.3764 -0.022,-0.6864 0,-0.9742 0.457,-1.4613 1.372,-1.4613 h 3.897 c 0.237,0 0.355,-4.303 0.355,-12.9088 0,-17.8907 -0.133,-29.3012 -0.399,-34.2315 -0.266,-4.9303 -0.428,-7.4471 -0.487,-7.5505 -0.059,-0.118 -0.185,-0.1771 -0.376,-0.1771 z m 46.055,25.4854 -4.34,0.1772 c -0.546,0 -0.819,-0.1107 -0.819,-0.3321 0,-0.2362 0.111,-0.6643 0.332,-1.2843 0.236,-0.62 0.45,-0.9742 0.642,-1.0628 0.207,-0.0886 0.605,-0.1329 1.196,-0.1329 l 10.251,-0.4428 c 0.414,0 0.665,0.0591 0.753,0.1771 0.104,0.1034 0.155,0.3174 0.155,0.6422 v 15.4108 c 0,10.82 0.155,16.2301 0.465,16.2301 h 3.897 c 0.502,0 0.805,0.1033 0.908,0.31 0.118,0.1919 0.177,0.5683 0.177,1.1292 0,0.5462 -0.066,0.9373 -0.199,1.1735 -0.133,0.251 -0.428,0.3764 -0.886,0.3764 l -7.816,-0.1771 -8.325,0.1771 c -0.502,0 -0.812,-0.1107 -0.93,-0.3321 -0.118,-0.2214 -0.177,-0.6052 -0.177,-1.1514 0,-0.5461 0.081,-0.9299 0.243,-1.1514 0.177,-0.2361 0.554,-0.3542 1.129,-0.3542 h 4.54 c 0.177,0 0.265,-3.2254 0.265,-9.6761 0,-6.4654 -0.066,-11.2407 -0.199,-14.3258 -0.118,-3.0852 -0.207,-4.7089 -0.266,-4.8713 -0.044,-0.1771 -0.118,-0.3026 -0.221,-0.3764 -0.133,-0.0886 -0.288,-0.1329 -0.465,-0.1329 z m 3.963,-14.2373 c -1.254,0 -2.273,-0.3395 -3.055,-1.0185 -0.783,-0.6938 -1.174,-1.6311 -1.174,-2.812 0,-1.1809 0.325,-2.1921 0.974,-3.0335 1.24,-1.5942 2.621,-2.3913 4.141,-2.3913 3.115,0 4.672,1.3064 4.672,3.9191 0,1.5352 -0.613,2.8121 -1.838,3.8306 -1.21,1.0038 -2.45,1.5056 -3.72,1.5056 z"
     fill="#212121"
     id="path2" />
  <path
     d="m 261.127,113.774 7.063,-0.266 c 0.635,0 1.048,0.126 1.24,0.376 0.207,0.237 0.31,0.702 0.31,1.395 0,0.694 -0.125,1.115 -0.376,1.263 -0.236,0.147 -0.613,0.221 -1.129,0.221 -0.517,0 -0.864,0.007 -1.041,0.022 -0.177,0.015 -0.347,0.022 -0.509,0.022 -0.148,-0.015 -0.281,0.008 -0.399,0.067 -0.118,0.044 -0.221,0.073 -0.31,0.088 -0.074,0 -0.155,0.052 -0.243,0.155 -0.089,0.089 -0.155,0.14 -0.2,0.155 -0.029,0.015 -0.088,0.104 -0.177,0.266 -0.074,0.162 -0.125,0.266 -0.155,0.31 -0.059,0.103 -0.177,0.376 -0.354,0.819 l -20.946,49.266 c -0.443,1.033 -0.923,1.867 -1.44,2.502 -0.516,0.62 -0.922,1.137 -1.217,1.55 -0.281,0.413 -0.62,0.967 -1.019,1.661 -0.384,0.694 -0.679,1.218 -0.886,1.572 -0.487,0.885 -1.026,1.328 -1.616,1.328 -0.576,0 -1.048,-0.472 -1.417,-1.417 -0.369,-0.944 -0.93,-2.539 -1.683,-4.782 -0.738,-2.259 -1.321,-3.868 -1.749,-4.827 -0.428,-0.975 -2.192,-5.455 -5.292,-13.441 -9.152,-23.544 -13.876,-35.316 -14.171,-35.316 h -2.812 c -0.93,0 -1.447,-0.17 -1.55,-0.509 -0.103,-0.355 -0.155,-0.805 -0.155,-1.351 0,-0.561 0.118,-0.93 0.354,-1.107 0.251,-0.192 0.702,-0.288 1.351,-0.288 l 8.547,0.266 11.779,-0.266 c 0.635,0 1.048,0.126 1.24,0.376 0.207,0.237 0.31,0.702 0.31,1.395 0,0.694 -0.125,1.115 -0.376,1.263 -0.236,0.147 -0.746,0.221 -1.528,0.221 h -6.355 v 0.199 c 0,1.107 0.598,3.336 1.794,6.687 5.24,14.806 9.063,25.36 11.469,31.663 2.407,6.288 3.742,9.433 4.008,9.433 0.266,0 0.797,-1.034 1.594,-3.1 0.797,-2.067 1.978,-5.093 3.543,-9.078 1.58,-4.001 2.982,-7.595 4.207,-10.784 1.24,-3.188 2.517,-6.546 3.831,-10.074 2.804,-7.469 4.207,-11.824 4.207,-13.064 0,-1.255 -0.185,-1.882 -0.554,-1.882 h -6.443 c -0.989,0 -1.558,-0.177 -1.705,-0.531 -0.133,-0.355 -0.199,-0.798 -0.199,-1.329 0,-0.546 0.103,-0.915 0.31,-1.107 0.221,-0.192 0.664,-0.288 1.328,-0.288 z m 12.555,28.297 -4.34,0.177 c -0.546,0 -0.819,-0.11 -0.819,-0.332 0,-0.236 0.11,-0.664 0.332,-1.284 0.236,-0.62 0.45,-0.974 0.642,-1.063 0.206,-0.088 0.605,-0.133 1.195,-0.133 l 10.252,-0.442 c 0.413,0 0.664,0.059 0.753,0.177 0.103,0.103 0.155,0.317 0.155,0.642 v 15.411 c 0,10.82 0.155,16.23 0.465,16.23 h 3.897 c 0.502,0 0.804,0.103 0.908,0.31 0.118,0.192 0.177,0.568 0.177,1.129 0,0.546 -0.066,0.937 -0.199,1.173 -0.133,0.251 -0.428,0.377 -0.886,0.377 l -7.816,-0.177 -8.326,0.177 c -0.501,0 -0.811,-0.111 -0.93,-0.332 -0.118,-0.222 -0.177,-0.606 -0.177,-1.152 0,-0.546 0.082,-0.93 0.244,-1.151 0.177,-0.236 0.553,-0.354 1.129,-0.354 h 4.539 c 0.177,0 0.266,-3.226 0.266,-9.676 0,-6.466 -0.066,-11.241 -0.199,-14.326 -0.118,-3.085 -0.207,-4.709 -0.266,-4.871 -0.044,-0.178 -0.118,-0.303 -0.221,-0.377 -0.133,-0.088 -0.288,-0.133 -0.465,-0.133 z m 3.963,-14.237 c -1.255,0 -2.273,-0.34 -3.056,-1.019 -0.782,-0.693 -1.173,-1.631 -1.173,-2.812 0,-1.181 0.325,-2.192 0.974,-3.033 1.24,-1.594 2.62,-2.391 4.141,-2.391 3.114,0 4.672,1.306 4.672,3.919 0,1.535 -0.613,2.812 -1.838,3.83 -1.211,1.004 -2.451,1.506 -3.72,1.506 z m 42.203,47.428 0.088,-3.255 c 0,-0.457 -0.332,-0.487 -0.996,-0.088 -3.794,2.361 -7.447,3.542 -10.96,3.542 -6.968,0 -11.78,-2.849 -14.437,-8.546 -1.196,-2.554 -1.794,-5.388 -1.794,-8.503 0,-3.115 0.48,-5.801 1.44,-8.06 0.959,-2.258 2.258,-4.192 3.897,-5.801 3.557,-3.469 8,-5.203 13.329,-5.203 2.864,0 5.794,0.686 8.791,2.059 0.339,0.148 0.56,0.221 0.664,0.221 0.118,0 0.177,-1.151 0.177,-3.454 0,-2.303 -0.111,-6.576 -0.332,-12.82 -0.207,-6.259 -0.436,-9.388 -0.687,-9.388 l -6.066,0.797 c -0.399,0 -0.554,-0.295 -0.465,-0.886 0.088,-0.59 0.14,-0.959 0.155,-1.107 0.029,-0.162 0.044,-0.273 0.044,-0.332 0.015,-0.059 0.029,-0.133 0.044,-0.221 0.03,-0.104 0.052,-0.17 0.067,-0.2 0.029,-0.044 0.059,-0.088 0.088,-0.133 0.03,-0.059 0.074,-0.095 0.133,-0.11 0.103,-0.03 0.605,-0.096 1.506,-0.199 0.915,-0.104 2.376,-0.296 4.384,-0.576 2.007,-0.281 3.631,-0.509 4.871,-0.687 1.255,-0.177 2.059,-0.265 2.413,-0.265 0.369,0 0.554,0.339 0.554,1.018 0,0.679 -0.044,2.775 -0.133,6.289 -0.28,11.13 -0.421,20.894 -0.421,29.293 0,8.385 0.037,14.149 0.111,17.293 0.089,3.144 0.258,5.019 0.509,5.624 0.251,0.591 0.768,0.886 1.55,0.886 0.074,0 0.318,-0.029 0.731,-0.089 l 1.395,-0.199 c 0.517,-0.074 0.908,-0.14 1.173,-0.199 0.591,-0.103 0.886,0.074 0.886,0.531 0,0.443 -0.007,0.768 -0.022,0.975 0,0.191 -0.022,0.413 -0.066,0.664 -0.104,0.487 -0.347,0.745 -0.731,0.775 -7.145,0.959 -10.872,1.439 -11.182,1.439 -0.295,0 -0.487,-0.074 -0.575,-0.221 -0.089,-0.148 -0.133,-0.436 -0.133,-0.864 z M 301.093,148.16 c -0.723,1.27 -1.269,2.657 -1.638,4.163 -0.369,1.491 -0.554,3.174 -0.554,5.048 0,1.86 0.259,3.661 0.775,5.403 0.517,1.727 1.307,3.255 2.369,4.583 2.215,2.79 5.669,4.185 10.363,4.185 1.343,0 2.952,-0.302 4.827,-0.908 1.875,-0.605 2.812,-1.203 2.812,-1.793 v -22.673 c 0,-0.561 -0.598,-1.255 -1.794,-2.082 -2.302,-1.579 -4.384,-2.369 -6.244,-2.369 -1.845,0 -3.439,0.273 -4.782,0.819 -1.344,0.546 -2.517,1.299 -3.521,2.259 -1.004,0.959 -1.875,2.081 -2.613,3.365 z m 39.989,-31.574 -5.359,0.642 c -0.354,0 -0.531,-0.406 -0.531,-1.218 0,-0.827 0.03,-1.328 0.089,-1.506 0.073,-0.191 0.797,-0.383 2.17,-0.575 1.387,-0.207 3.594,-0.495 6.62,-0.864 3.041,-0.369 4.731,-0.553 5.071,-0.553 0.339,0 0.546,0.081 0.619,0.243 0.074,0.163 0.111,0.399 0.111,0.709 0,0.295 -0.059,1.934 -0.177,4.915 -0.369,9.344 -0.553,15.721 -0.553,19.131 0,3.41 0.014,5.137 0.044,5.181 0.029,0.03 0.546,-0.229 1.55,-0.775 1.004,-0.546 2.672,-1.195 5.004,-1.948 2.347,-0.768 4.332,-1.152 5.956,-1.152 1.624,0 3.011,0.185 4.163,0.554 1.166,0.369 2.147,0.856 2.945,1.461 0.797,0.606 1.483,1.388 2.059,2.347 0.59,0.96 1.055,1.941 1.395,2.945 0.339,1.004 0.612,2.192 0.819,3.565 0.31,2.17 0.465,4.834 0.465,7.993 v 7.706 c 0,4.044 0.096,6.067 0.288,6.067 h 3.078 c 0.546,0 0.893,0.11 1.04,0.332 0.148,0.221 0.222,0.598 0.222,1.129 0,1.019 -0.421,1.528 -1.262,1.528 l -6.709,-0.177 -7.994,0.177 c -0.575,0 -0.93,-0.111 -1.063,-0.332 -0.132,-0.207 -0.199,-0.583 -0.199,-1.13 0,-0.56 0.067,-0.952 0.199,-1.173 0.133,-0.236 0.429,-0.354 0.886,-0.354 h 4.362 c 0.295,0 0.443,-3.108 0.443,-9.322 0,-6.229 -0.103,-9.92 -0.31,-11.071 -0.207,-1.166 -0.531,-2.236 -0.974,-3.211 -0.443,-0.989 -0.989,-1.837 -1.639,-2.546 -1.387,-1.491 -3.351,-2.236 -5.89,-2.236 -2.524,0 -5.055,0.634 -7.594,1.904 -0.856,0.428 -1.284,0.79 -1.284,1.085 0.073,11.012 0.11,18.001 0.11,20.968 0,2.953 0.118,4.429 0.354,4.429 h 4.163 c 0.532,0 0.864,0.11 0.997,0.332 0.132,0.206 0.199,0.516 0.199,0.93 0,0.398 -0.008,0.664 -0.022,0.797 -0.015,0.133 -0.059,0.28 -0.133,0.443 -0.133,0.324 -0.48,0.487 -1.041,0.487 l -7.794,-0.177 -7.971,0.177 c -0.782,0 -1.203,-0.281 -1.262,-0.842 -0.015,-0.147 -0.022,-0.376 -0.022,-0.686 0,-0.974 0.457,-1.461 1.373,-1.461 h 3.897 c 0.236,0 0.354,-4.303 0.354,-12.909 0,-17.891 -0.133,-29.301 -0.399,-34.232 -0.265,-4.93 -0.428,-7.447 -0.487,-7.55 -0.059,-0.118 -0.184,-0.177 -0.376,-0.177 z m 42.933,84.449 c -1.269,0 -1.904,-0.701 -1.904,-2.103 0,-0.989 0.605,-2.318 1.816,-3.986 0.531,-0.753 1.173,-1.254 1.926,-1.505 0.753,-0.251 1.439,-0.48 2.059,-0.687 0.635,-0.206 1.166,-0.391 1.594,-0.553 0.443,-0.148 0.96,-0.355 1.55,-0.62 0.606,-0.251 1.115,-0.502 1.528,-0.753 0.989,-0.605 1.639,-1.284 1.949,-2.037 2.657,-6.525 3.985,-10.075 3.985,-10.65 0,-0.561 -0.856,-2.938 -2.568,-7.13 -1.698,-4.192 -3.875,-9.433 -6.532,-15.721 -2.657,-6.303 -4.222,-10.03 -4.694,-11.182 -0.473,-1.151 -0.753,-1.778 -0.842,-1.882 -0.088,-0.103 -0.288,-0.155 -0.598,-0.155 h -1.815 c -0.709,0 -1.093,-0.273 -1.152,-0.819 -0.014,-0.133 -0.022,-0.34 -0.022,-0.62 0,-1.033 0.391,-1.55 1.174,-1.55 l 6.997,0.177 7.971,-0.177 c 0.59,0 0.981,0.126 1.173,0.376 0.192,0.237 0.288,0.628 0.288,1.174 0,0.96 -0.457,1.439 -1.373,1.439 h -1.727 c -1.387,0 -2.081,0.214 -2.081,0.642 0,0.679 0.952,3.632 2.856,8.857 1.904,5.211 3.277,8.857 4.119,10.938 0.856,2.067 1.358,3.277 1.505,3.632 0.148,0.339 0.266,0.612 0.355,0.819 0.088,0.192 0.177,0.384 0.265,0.576 0.192,0.383 0.34,0.575 0.443,0.575 0.118,0 0.539,-0.967 1.262,-2.9 4.886,-14.348 7.329,-21.877 7.329,-22.585 0,-0.369 -0.539,-0.554 -1.616,-0.554 h -3.189 c -0.708,0 -1.092,-0.273 -1.151,-0.819 -0.015,-0.133 -0.022,-0.332 -0.022,-0.598 0,-0.28 0.007,-0.494 0.022,-0.642 0.03,-0.162 0.081,-0.325 0.155,-0.487 0.148,-0.295 0.509,-0.443 1.085,-0.443 l 6.089,0.177 5.248,-0.177 c 0.472,0 0.789,0.118 0.952,0.354 0.162,0.222 0.243,0.547 0.243,0.975 0,0.428 -0.007,0.708 -0.022,0.841 -0.015,0.133 -0.051,0.273 -0.11,0.421 -0.104,0.265 -0.421,0.398 -0.953,0.398 h -1.372 c -0.547,0 -0.908,0.244 -1.085,0.731 -0.635,1.742 -2.665,7.004 -6.089,15.787 -3.425,8.768 -5.3,13.544 -5.624,14.326 -0.31,0.782 -0.635,1.675 -0.975,2.679 -1.077,3.203 -1.867,5.521 -2.369,6.953 -0.502,1.446 -0.871,2.502 -1.107,3.166 -0.221,0.664 -0.362,1.063 -0.421,1.196 -0.044,0.133 -0.169,0.465 -0.376,0.996 -0.192,0.532 -0.332,0.871 -0.421,1.019 -0.074,0.162 -0.214,0.465 -0.421,0.908 -0.191,0.442 -0.361,0.774 -0.509,0.996 -0.147,0.221 -0.347,0.539 -0.598,0.952 -0.236,0.413 -0.479,0.79 -0.73,1.129 -0.487,0.65 -0.952,1.248 -1.395,1.794 -0.443,0.561 -0.768,0.967 -0.974,1.218 -0.192,0.265 -0.31,0.428 -0.355,0.487 -0.044,0.059 -0.147,0.177 -0.31,0.354 -0.147,0.192 -0.258,0.31 -0.332,0.354 -0.059,0.059 -0.162,0.155 -0.31,0.288 -0.147,0.148 -0.28,0.251 -0.398,0.31 -0.104,0.074 -0.251,0.17 -0.443,0.288 -0.295,0.192 -1.403,0.745 -3.322,1.661 -1.904,0.915 -3.114,1.372 -3.631,1.372 z m 66.116,-51.347 -0.531,18.511 c 0,1.151 0.413,1.926 1.24,2.325 0.162,0.074 0.339,0.11 0.531,0.11 0.192,0 0.812,-0.376 1.86,-1.129 1.063,-0.753 1.653,-1.129 1.771,-1.129 0.118,0 0.362,0.236 0.731,0.708 0.384,0.458 0.576,0.775 0.576,0.953 0,0.162 -0.207,0.398 -0.62,0.708 -0.399,0.31 -1.056,0.797 -1.971,1.461 -0.9,0.665 -1.948,1.432 -3.144,2.303 -1.196,0.871 -2.059,1.307 -2.591,1.307 -0.531,0 -0.989,-0.074 -1.372,-0.222 -0.369,-0.147 -0.665,-0.325 -0.886,-0.531 -0.222,-0.192 -0.436,-0.458 -0.642,-0.797 -0.192,-0.34 -0.332,-0.628 -0.421,-0.864 -0.088,-0.236 -0.199,-0.553 -0.332,-0.952 -0.118,-0.398 -0.221,-0.723 -0.31,-0.974 -0.133,-0.399 -0.45,-0.436 -0.952,-0.111 -4.488,2.79 -8.193,4.185 -11.115,4.185 -2.923,0 -5.204,-0.723 -6.842,-2.17 -1.639,-1.461 -2.458,-3.402 -2.458,-5.823 0,-2.716 1.122,-5.027 3.366,-6.931 2.228,-1.889 4.509,-3.232 6.841,-4.03 3.72,-1.254 7.182,-2.162 10.385,-2.723 0.295,-0.059 0.443,-0.531 0.443,-1.417 0,-0.886 -0.008,-1.617 -0.022,-2.192 -0.015,-0.576 -0.052,-1.314 -0.111,-2.214 -0.059,-0.916 -0.162,-1.632 -0.31,-2.148 -0.133,-0.532 -0.317,-1.137 -0.554,-1.816 -0.221,-0.694 -0.524,-1.232 -0.907,-1.616 -0.384,-0.399 -0.834,-0.783 -1.351,-1.152 -0.96,-0.708 -2.185,-1.062 -3.676,-1.062 -1.476,0 -2.723,0.214 -3.742,0.642 -1.003,0.413 -1.653,1.011 -1.948,1.793 -0.281,0.768 -0.421,1.89 -0.421,3.366 0,1.476 -0.295,2.413 -0.885,2.812 -0.576,0.398 -1.499,0.922 -2.768,1.572 -1.27,0.649 -2.023,0.974 -2.259,0.974 -0.546,0 -0.819,-0.649 -0.819,-1.948 0,-1.314 0.295,-2.628 0.886,-3.942 0.59,-1.328 1.373,-2.465 2.347,-3.409 0.974,-0.96 2.074,-1.787 3.299,-2.48 2.436,-1.403 4.753,-2.104 6.953,-2.104 2.214,0 4.022,0.192 5.424,0.576 1.403,0.384 2.561,0.922 3.477,1.616 0.915,0.679 1.66,1.535 2.236,2.569 1.063,1.889 1.594,4.354 1.594,7.395 z m -20.592,15.322 c 0,0.975 0.207,1.912 0.62,2.812 0.428,0.886 1.078,1.639 1.949,2.259 0.885,0.62 1.882,0.93 2.989,0.93 1.122,0 2.369,-0.17 3.742,-0.509 3.232,-0.798 4.849,-1.477 4.849,-2.037 v -11.869 c 0,-0.487 -0.074,-0.73 -0.222,-0.73 -0.132,0 -0.465,0.051 -0.996,0.155 -8.621,1.682 -12.931,4.679 -12.931,8.989 z"
     fill="#212121"
     id="path4" />
  <circle
     cx="96"
     cy="106"
     r="77"
     stroke="#0099ff"
     stroke-width="26"
     id="circle6" />
</svg>
