<?xml version="1.0" encoding="UTF-8" standalone="no"?>
<svg
   width="514"
   height="210"
   viewBox="0 0 514 210"
   fill="none"
   version="1.1"
   id="svg8"
   sodipodi:docname="logo.svg"
   inkscape:version="1.2 (dc2aedaf03, 2022-05-15)"
   inkscape:export-filename="C:\Users\yaras\Desktop\logo.svg"
   inkscape:export-xdpi="96"
   inkscape:export-ydpi="96"
   xmlns:inkscape="http://www.inkscape.org/namespaces/inkscape"
   xmlns:sodipodi="http://sodipodi.sourceforge.net/DTD/sodipodi-0.dtd"
   xmlns="http://www.w3.org/2000/svg"
   xmlns:svg="http://www.w3.org/2000/svg">
  <defs
     id="defs12" />
  <sodipodi:namedview
     id="namedview10"
     pagecolor="#ffffff"
     bordercolor="#000000"
     borderopacity="0.25"
     inkscape:showpageshadow="2"
     inkscape:pageopacity="0.0"
     inkscape:pagecheckerboard="0"
     inkscape:deskcolor="#d1d1d1"
     showgrid="false"
     inkscape:zoom="2.1080139"
     inkscape:cx="245.49174"
     inkscape:cy="104.83802"
     inkscape:window-width="2560"
     inkscape:window-height="1369"
     inkscape:window-x="-8"
     inkscape:window-y="1072"
     inkscape:window-maximized="1"
     inkscape:current-layer="svg8" />
  <path
     d="m 236.259,46.8267 0.287,-5.8012 c 0,-0.9152 -0.723,-1.9928 -2.169,-3.2327 -1.432,-1.24 -2.709,-2.2142 -3.831,-2.9228 -2.598,-1.6385 -5.381,-2.4577 -8.348,-2.4577 -2.952,0 -5.55,1.0849 -7.794,3.2549 -2.228,2.1699 -3.343,4.9155 -3.343,8.2368 0,3.3065 1.417,6.0226 4.251,8.1482 1.831,1.3728 4.953,2.8785 9.366,4.517 4.429,1.6385 7.521,2.9154 9.278,3.8306 3.749,1.9927 6.34,4.4357 7.772,7.329 1.018,2.0666 1.527,4.325 1.527,6.7754 0,2.4504 -0.391,4.6425 -1.173,6.5762 -0.768,1.9337 -1.816,3.6018 -3.144,5.0041 -1.329,1.3875 -2.871,2.5832 -4.628,3.587 -3.498,1.978 -7.381,2.967 -11.647,2.967 -5.343,0 -10.214,-0.7676 -14.613,-2.3028 -2.377,-0.8266 -3.587,-1.5573 -3.632,-2.192 -0.029,-0.6495 -0.132,-2.0887 -0.31,-4.3177 -0.383,-5.1369 -0.575,-7.9637 -0.575,-8.4804 0,-0.5166 0.007,-0.834 0.022,-0.9521 0.015,-0.1181 0.066,-0.2509 0.155,-0.3986 0.133,-0.2657 0.524,-0.3985 1.173,-0.3985 h 0.443 c 0.62,0 1.056,0.1107 1.307,0.3321 0.251,0.2067 0.391,0.5979 0.42,1.1735 l 0.554,8.5247 c 0.059,0.7528 1.033,1.5647 2.923,2.4356 1.904,0.871 4.096,1.5943 6.576,2.17 2.494,0.5756 4.701,0.8635 6.62,0.8635 1.919,0 3.779,-0.4576 5.58,-1.3728 1.801,-0.93 3.24,-2.2216 4.318,-3.8749 1.092,-1.6532 1.638,-3.3286 1.638,-5.0262 0,-1.6975 -0.28,-3.1368 -0.841,-4.3177 -0.546,-1.1809 -1.218,-2.1773 -2.015,-2.9892 -0.797,-0.8118 -1.89,-1.6089 -3.277,-2.3913 -1.919,-1.1071 -4.089,-2.133 -6.51,-3.0777 -2.406,-0.9595 -3.941,-1.5721 -4.605,-1.8378 -0.665,-0.2805 -1.602,-0.6938 -2.812,-1.24 -1.196,-0.5461 -2.126,-1.0185 -2.79,-1.4171 -0.665,-0.3985 -1.499,-0.9225 -2.502,-1.572 -0.989,-0.6643 -1.764,-1.2916 -2.325,-1.8821 -0.561,-0.6052 -1.181,-1.3285 -1.86,-2.1699 -0.664,-0.8562 -1.166,-1.7271 -1.506,-2.6128 -0.826,-2.1551 -1.24,-4.207 -1.24,-6.1554 0,-1.9633 0.259,-3.7273 0.775,-5.292 0.517,-1.5647 1.225,-2.9744 2.126,-4.2291 0.9,-1.2695 1.97,-2.4282 3.21,-3.4763 1.255,-1.0481 2.606,-1.9263 4.052,-2.6349 3.056,-1.4614 5.92,-2.1921 8.591,-2.1921 2.687,0 5.005,0.251 6.953,0.7529 1.949,0.5019 3.639,1.2621 5.071,2.2806 1.446,1.0038 2.339,1.5057 2.679,1.5057 0.162,0 0.273,-0.4503 0.332,-1.3507 0.074,-0.9004 0.192,-1.4319 0.354,-1.5942 0.177,-0.1624 0.664,-0.2436 1.462,-0.2436 0.797,0 1.306,0.0812 1.527,0.2436 0.222,0.1623 0.332,0.5978 0.332,1.3064 l -0.553,14.4144 c 0,0.6347 -0.089,1.0554 -0.266,1.2621 -0.177,0.1919 -0.649,0.2878 -1.417,0.2878 -0.767,0 -1.284,-0.1033 -1.55,-0.31 -0.266,-0.2066 -0.398,-0.5609 -0.398,-1.0628 z m 16.451,-13.2409 -5.358,0.6421 c -0.355,0 -0.532,-0.4059 -0.532,-1.2178 0,-0.8266 0.03,-1.3285 0.089,-1.5056 0.074,-0.1919 0.797,-0.3838 2.17,-0.5757 1.387,-0.2067 3.594,-0.4945 6.62,-0.8636 3.041,-0.369 4.731,-0.5535 5.071,-0.5535 0.339,0 0.546,0.0812 0.62,0.2435 0.074,0.1624 0.111,0.3986 0.111,0.7086 0,0.2952 -0.06,1.9337 -0.178,4.9155 -0.369,9.3439 -0.553,15.7208 -0.553,19.1307 0,3.4099 0.015,5.1369 0.044,5.1812 0.03,0.0295 0.546,-0.2288 1.55,-0.7749 1.004,-0.5462 2.672,-1.1957 5.004,-1.9485 2.347,-0.7676 4.333,-1.1514 5.956,-1.1514 1.624,0 3.012,0.1845 4.163,0.5535 1.166,0.3691 2.148,0.8562 2.945,1.4614 0.797,0.6052 1.483,1.3876 2.059,2.347 0.591,0.9595 1.056,1.9412 1.395,2.9449 0.34,1.0038 0.613,2.1921 0.819,3.5649 0.31,2.1699 0.465,4.8343 0.465,7.9933 v 7.7054 c 0,4.0446 0.096,6.0669 0.288,6.0669 h 3.078 c 0.546,0 0.893,0.1107 1.041,0.3321 0.147,0.2214 0.221,0.5978 0.221,1.1292 0,1.0186 -0.421,1.5278 -1.262,1.5278 l -6.709,-0.1771 -7.993,0.1771 c -0.576,0 -0.93,-0.1107 -1.063,-0.3321 -0.133,-0.2066 -0.2,-0.5831 -0.2,-1.1292 0,-0.561 0.067,-0.9521 0.2,-1.1736 0.133,-0.2361 0.428,-0.3542 0.885,-0.3542 h 4.362 c 0.296,0 0.443,-3.1073 0.443,-9.3218 0,-6.2293 -0.103,-9.9196 -0.31,-11.071 -0.206,-1.1661 -0.531,-2.2363 -0.974,-3.2106 -0.443,-0.989 -0.989,-1.8378 -1.638,-2.5463 -1.388,-1.4909 -3.351,-2.2364 -5.89,-2.2364 -2.524,0 -5.056,0.6348 -7.595,1.9042 -0.856,0.4281 -1.284,0.7898 -1.284,1.085 0.074,11.012 0.111,18.0014 0.111,20.9685 0,2.9522 0.118,4.4284 0.354,4.4284 h 4.162 c 0.532,0 0.864,0.1107 0.997,0.3321 0.133,0.2067 0.199,0.5166 0.199,0.93 0,0.3985 -0.007,0.6642 -0.022,0.7971 -0.015,0.1328 -0.059,0.2804 -0.133,0.4428 -0.133,0.3248 -0.48,0.4871 -1.041,0.4871 l -7.793,-0.1771 -7.972,0.1771 c -0.782,0 -1.203,-0.2804 -1.262,-0.8414 -0.014,-0.1476 -0.022,-0.3764 -0.022,-0.6864 0,-0.9742 0.458,-1.4613 1.373,-1.4613 h 3.897 c 0.236,0 0.354,-4.303 0.354,-12.9088 0,-17.8907 -0.133,-29.3012 -0.398,-34.2315 -0.266,-4.9303 -0.428,-7.4471 -0.487,-7.5505 -0.06,-0.118 -0.185,-0.1771 -0.377,-0.1771 z m 45.258,25.3969 -4.45,0.0885 c -0.487,0 -0.731,-0.1476 -0.731,-0.4428 0,-1.4318 0.362,-2.1921 1.085,-2.2806 0.103,-0.0148 0.177,-0.0222 0.222,-0.0222 0.265,-0.0442 1.771,-0.1254 4.516,-0.2435 2.761,-0.1181 4.599,-0.1772 5.514,-0.1772 0.915,0 1.402,0.0591 1.461,0.1772 0.059,0.1033 0.089,0.3173 0.089,0.6421 v 24.6662 c 0,3.8674 3.262,5.8012 9.787,5.8012 1.682,0 3.432,-0.1181 5.247,-0.3543 1.831,-0.2509 2.746,-0.524 2.746,-0.8192 V 75.3013 c 0,-11.0562 -0.244,-16.5843 -0.731,-16.5843 l -4.539,0.1771 c -0.487,0 -0.731,-0.0886 -0.731,-0.2657 0,-1.3138 0.126,-2.0518 0.377,-2.2142 0.251,-0.1624 0.583,-0.2436 0.996,-0.2436 l 10.518,-0.4428 c 0.605,0 0.907,0.1476 0.907,0.4428 v 0.3765 c -0.059,14.4365 -0.088,22.9833 -0.088,25.6404 0,2.6423 0.037,4.3103 0.111,5.0041 0.088,0.6938 0.228,1.1587 0.42,1.3949 0.192,0.2214 0.495,0.3322 0.908,0.3322 l 3.986,-0.5536 c 0.369,0 0.553,0.369 0.553,1.1071 0,0.7381 -0.052,1.1883 -0.155,1.3507 -0.103,0.1476 -2.096,0.5018 -5.978,1.0628 -3.868,0.5609 -5.86,0.8414 -5.979,0.8414 -0.118,0 -0.214,-0.7676 -0.287,-2.3028 -0.074,-1.5499 -0.133,-2.3249 -0.177,-2.3249 -0.03,0 -0.347,0.1476 -0.953,0.4428 -0.59,0.2805 -1.387,0.6274 -2.391,1.0407 -0.989,0.3986 -2.081,0.7971 -3.277,1.1957 -4.65,1.5942 -8.591,1.9337 -11.824,1.0185 -4.236,-1.2104 -6.355,-5.1665 -6.355,-11.8681 V 65.6917 c 0,-4.4727 -0.265,-6.709 -0.797,-6.709 z m 70.611,33.2794 0.089,-3.2549 c 0,-0.4576 -0.332,-0.4871 -0.997,-0.0885 -3.793,2.3618 -7.447,3.5427 -10.96,3.5427 -6.967,0 -11.779,-2.849 -14.437,-8.5468 -1.195,-2.5537 -1.793,-5.3879 -1.793,-8.5026 0,-3.1146 0.48,-5.8012 1.439,-8.0596 0.96,-2.2585 2.259,-4.1923 3.897,-5.8013 3.558,-3.4689 8.001,-5.2033 13.33,-5.2033 2.863,0 5.794,0.6864 8.79,2.0592 0.34,0.1476 0.561,0.2214 0.664,0.2214 0.118,0 0.177,-1.1514 0.177,-3.4541 0,-2.3028 -0.11,-6.5762 -0.332,-12.8203 -0.206,-6.2588 -0.435,-9.3882 -0.686,-9.3882 l -6.067,0.7971 c -0.399,0 -0.554,-0.2952 -0.465,-0.8856 0.089,-0.5905 0.14,-0.9595 0.155,-1.1071 0.03,-0.1624 0.044,-0.2731 0.044,-0.3322 0.015,-0.059 0.03,-0.1328 0.045,-0.2214 0.029,-0.1033 0.051,-0.1697 0.066,-0.1993 0.03,-0.0442 0.059,-0.0885 0.089,-0.1328 0.029,-0.0591 0.073,-0.096 0.132,-0.1107 0.104,-0.0295 0.606,-0.096 1.506,-0.1993 0.915,-0.1033 2.377,-0.2952 4.384,-0.5757 2.008,-0.2805 3.631,-0.5093 4.871,-0.6864 1.255,-0.1771 2.06,-0.2657 2.414,-0.2657 0.369,0 0.553,0.3395 0.553,1.0185 0,0.6791 -0.044,2.7752 -0.132,6.2884 -0.281,11.13 -0.421,20.8946 -0.421,29.2938 0,8.3845 0.037,14.1488 0.111,17.2929 0.088,3.1442 0.258,5.0189 0.509,5.6241 0.251,0.5904 0.767,0.8857 1.55,0.8857 0.074,0 0.317,-0.0296 0.731,-0.0886 l 1.394,-0.1993 c 0.517,-0.0738 0.908,-0.1402 1.174,-0.1993 0.59,-0.1033 0.886,0.0738 0.886,0.5314 0,0.4429 -0.008,0.7676 -0.022,0.9743 0,0.1919 -0.023,0.4133 -0.067,0.6643 -0.103,0.4871 -0.347,0.7454 -0.731,0.7749 -7.144,0.9595 -10.871,1.4393 -11.181,1.4393 -0.296,0 -0.487,-0.0739 -0.576,-0.2215 -0.089,-0.1476 -0.133,-0.4354 -0.133,-0.8635 z M 349.825,65.1603 c -0.723,1.2695 -1.27,2.657 -1.639,4.1627 -0.369,1.4909 -0.553,3.1737 -0.553,5.0484 0,1.8599 0.258,3.6608 0.775,5.4026 0.516,1.7271 1.306,3.2549 2.369,4.5834 2.214,2.7899 5.668,4.1848 10.362,4.1848 1.344,0 2.953,-0.3026 4.827,-0.9078 1.875,-0.6052 2.812,-1.203 2.812,-1.7935 V 63.1675 c 0,-0.5609 -0.597,-1.2547 -1.793,-2.0813 -2.303,-1.5795 -4.384,-2.3692 -6.244,-2.3692 -1.845,0 -3.439,0.2731 -4.783,0.8192 -1.343,0.5462 -2.517,1.299 -3.52,2.2585 -1.004,0.9595 -1.875,2.0814 -2.613,3.3656 z m 64.012,27.1018 0.089,-3.2549 c 0,-0.4576 -0.332,-0.4871 -0.996,-0.0885 -3.794,2.3618 -7.447,3.5427 -10.961,3.5427 -6.967,0 -11.779,-2.849 -14.436,-8.5468 -1.196,-2.5537 -1.794,-5.3879 -1.794,-8.5026 0,-3.1146 0.48,-5.8012 1.439,-8.0596 0.96,-2.2585 2.259,-4.1923 3.897,-5.8013 3.558,-3.4689 8.001,-5.2033 13.33,-5.2033 2.864,0 5.794,0.6864 8.79,2.0592 0.34,0.1476 0.561,0.2214 0.665,0.2214 0.118,0 0.177,-1.1514 0.177,-3.4541 0,-2.3028 -0.111,-6.5762 -0.332,-12.8203 -0.207,-6.2588 -0.436,-9.3882 -0.687,-9.3882 l -6.067,0.7971 c -0.398,0 -0.553,-0.2952 -0.465,-0.8856 0.089,-0.5905 0.141,-0.9595 0.155,-1.1071 0.03,-0.1624 0.045,-0.2731 0.045,-0.3322 0.014,-0.059 0.029,-0.1328 0.044,-0.2214 0.029,-0.1033 0.051,-0.1697 0.066,-0.1993 0.03,-0.0442 0.059,-0.0885 0.089,-0.1328 0.029,-0.0591 0.074,-0.096 0.133,-0.1107 0.103,-0.0295 0.605,-0.096 1.505,-0.1993 0.916,-0.1033 2.377,-0.2952 4.384,-0.5757 2.008,-0.2805 3.632,-0.5093 4.872,-0.6864 1.254,-0.1771 2.059,-0.2657 2.413,-0.2657 0.369,0 0.554,0.3395 0.554,1.0185 0,0.6791 -0.045,2.7752 -0.133,6.2884 -0.281,11.13 -0.421,20.8946 -0.421,29.2938 0,8.3845 0.037,14.1488 0.111,17.2929 0.088,3.1442 0.258,5.0189 0.509,5.6241 0.251,0.5904 0.768,0.8857 1.55,0.8857 0.074,0 0.317,-0.0296 0.731,-0.0886 l 1.395,-0.1993 c 0.516,-0.0738 0.908,-0.1402 1.173,-0.1993 0.591,-0.1033 0.886,0.0738 0.886,0.5314 0,0.4429 -0.007,0.7676 -0.022,0.9743 0,0.1919 -0.022,0.4133 -0.067,0.6643 -0.103,0.4871 -0.347,0.7454 -0.73,0.7749 -7.145,0.9595 -10.872,1.4393 -11.182,1.4393 -0.295,0 -0.487,-0.0739 -0.576,-0.2215 -0.088,-0.1476 -0.133,-0.4354 -0.133,-0.8635 z M 395.083,65.1603 c -0.723,1.2695 -1.269,2.657 -1.638,4.1627 -0.369,1.4909 -0.554,3.1737 -0.554,5.0484 0,1.8599 0.258,3.6608 0.775,5.4026 0.517,1.7271 1.306,3.2549 2.369,4.5834 2.214,2.7899 5.669,4.1848 10.363,4.1848 1.343,0 2.952,-0.3026 4.827,-0.9078 1.874,-0.6052 2.812,-1.203 2.812,-1.7935 V 63.1675 c 0,-0.5609 -0.598,-1.2547 -1.794,-2.0813 -2.303,-1.5795 -4.384,-2.3692 -6.244,-2.3692 -1.845,0 -3.439,0.2731 -4.783,0.8192 -1.343,0.5462 -2.516,1.299 -3.52,2.2585 -1.004,0.9595 -1.875,2.0814 -2.613,3.3656 z m 39.989,-31.5745 -5.359,0.6421 c -0.354,0 -0.531,-0.4059 -0.531,-1.2178 0,-0.8266 0.029,-1.3285 0.088,-1.5056 0.074,-0.1919 0.798,-0.3838 2.17,-0.5757 1.388,-0.2067 3.595,-0.4945 6.621,-0.8636 3.041,-0.369 4.731,-0.5535 5.07,-0.5535 0.34,0 0.546,0.0812 0.62,0.2435 0.074,0.1624 0.111,0.3986 0.111,0.7086 0,0.2952 -0.059,1.9337 -0.177,4.9155 -0.369,9.3439 -0.554,15.7208 -0.554,19.1307 0,3.4099 0.015,5.1369 0.045,5.1812 0.029,0.0295 0.546,-0.2288 1.55,-0.7749 1.003,-0.5462 2.671,-1.1957 5.004,-1.9485 2.347,-0.7676 4.332,-1.1514 5.956,-1.1514 1.624,0 3.011,0.1845 4.162,0.5535 1.167,0.3691 2.148,0.8562 2.945,1.4614 0.797,0.6052 1.484,1.3876 2.06,2.347 0.59,0.9595 1.055,1.9412 1.395,2.9449 0.339,1.0038 0.612,2.1921 0.819,3.5649 0.31,2.1699 0.465,4.8343 0.465,7.9933 v 7.7054 c 0,4.0446 0.096,6.0669 0.288,6.0669 h 3.077 c 0.547,0 0.893,0.1107 1.041,0.3321 0.148,0.2214 0.221,0.5978 0.221,1.1292 0,1.0186 -0.42,1.5278 -1.262,1.5278 l -6.709,-0.1771 -7.993,0.1771 c -0.576,0 -0.93,-0.1107 -1.063,-0.3321 -0.133,-0.2066 -0.199,-0.5831 -0.199,-1.1292 0,-0.561 0.066,-0.9521 0.199,-1.1736 0.133,-0.2361 0.428,-0.3542 0.886,-0.3542 h 4.362 c 0.295,0 0.443,-3.1073 0.443,-9.3218 0,-6.2293 -0.104,-9.9196 -0.31,-11.071 -0.207,-1.1661 -0.532,-2.2363 -0.975,-3.2106 -0.442,-0.989 -0.989,-1.8378 -1.638,-2.5463 -1.388,-1.4909 -3.351,-2.2364 -5.89,-2.2364 -2.524,0 -5.056,0.6348 -7.594,1.9042 -0.857,0.4281 -1.285,0.7898 -1.285,1.085 0.074,11.012 0.111,18.0014 0.111,20.9685 0,2.9522 0.118,4.4284 0.354,4.4284 h 4.163 c 0.531,0 0.863,0.1107 0.996,0.3321 0.133,0.2067 0.2,0.5166 0.2,0.93 0,0.3985 -0.008,0.6642 -0.023,0.7971 -0.014,0.1328 -0.059,0.2804 -0.132,0.4428 -0.133,0.3248 -0.48,0.4871 -1.041,0.4871 l -7.794,-0.1771 -7.971,0.1771 c -0.782,0 -1.203,-0.2804 -1.262,-0.8414 -0.015,-0.1476 -0.022,-0.3764 -0.022,-0.6864 0,-0.9742 0.457,-1.4613 1.372,-1.4613 h 3.897 c 0.237,0 0.355,-4.303 0.355,-12.9088 0,-17.8907 -0.133,-29.3012 -0.399,-34.2315 -0.266,-4.9303 -0.428,-7.4471 -0.487,-7.5505 -0.059,-0.118 -0.185,-0.1771 -0.376,-0.1771 z m 46.055,25.4854 -4.34,0.1772 c -0.546,0 -0.819,-0.1107 -0.819,-0.3321 0,-0.2362 0.111,-0.6643 0.332,-1.2843 0.236,-0.62 0.45,-0.9742 0.642,-1.0628 0.207,-0.0886 0.605,-0.1329 1.196,-0.1329 l 10.251,-0.4428 c 0.414,0 0.665,0.0591 0.753,0.1771 0.104,0.1034 0.155,0.3174 0.155,0.6422 v 15.4108 c 0,10.82 0.155,16.2301 0.465,16.2301 h 3.897 c 0.502,0 0.805,0.1033 0.908,0.31 0.118,0.1919 0.177,0.5683 0.177,1.1292 0,0.5462 -0.066,0.9373 -0.199,1.1735 -0.133,0.251 -0.428,0.3764 -0.886,0.3764 l -7.816,-0.1771 -8.325,0.1771 c -0.502,0 -0.812,-0.1107 -0.93,-0.3321 -0.118,-0.2214 -0.177,-0.6052 -0.177,-1.1514 0,-0.5461 0.081,-0.9299 0.243,-1.1514 0.177,-0.2361 0.554,-0.3542 1.129,-0.3542 h 4.54 c 0.177,0 0.265,-3.2254 0.265,-9.6761 0,-6.4654 -0.066,-11.2407 -0.199,-14.3258 -0.118,-3.0852 -0.207,-4.7089 -0.266,-4.8713 -0.044,-0.1771 -0.118,-0.3026 -0.221,-0.3764 -0.133,-0.0886 -0.288,-0.1329 -0.465,-0.1329 z m 3.963,-14.2373 c -1.254,0 -2.273,-0.3395 -3.055,-1.0185 -0.783,-0.6938 -1.174,-1.6311 -1.174,-2.812 0,-1.1809 0.325,-2.1921 0.974,-3.0335 1.24,-1.5942 2.621,-2.3913 4.141,-2.3913 3.115,0 4.672,1.3064 4.672,3.9191 0,1.5352 -0.613,2.8121 -1.838,3.8306 -1.21,1.0038 -2.45,1.5056 -3.72,1.5056 z"
     fill="#212121"
     id="path2" />
  <path
     id="circle6"
     style="stroke:#0099ff;stroke-width:26"
     d="M 173,106 A 77,77 0 0 1 96,183 77,77 0 0 1 19,106 77,77 0 0 1 96,29 77,77 0 0 1 173,106 Z" />
  <g
     aria-label="Vidhya"
     id="text185"
     style="font-size:93.3333px;font-family:'IBM Plex Mono';-inkscape-font-specification:'IBM Plex Mono';text-align:center;text-anchor:middle;fill:#212121">
    <path
       d="m 261.85834,110.22085 7.26887,-0.27343 q 0.97982,0 1.27604,0.38737 0.31901,0.36458 0.31901,1.43554 0,1.07097 -0.38737,1.29883 -0.36458,0.22786 -1.1621,0.22786 -0.79753,0 -1.07097,0.0228 -0.27344,0.0228 -0.52409,0.0228 -0.22786,-0.0228 -0.41015,0.0684 -0.18229,0.0684 -0.31901,0.0911 -0.11393,0 -0.25065,0.15951 -0.13672,0.13672 -0.20508,0.1595 -0.0456,0.0228 -0.18229,0.27344 -0.11394,0.25065 -0.15951,0.31901 -0.0911,0.15951 -0.36458,0.8431 l -21.55598,50.69985 q -0.6836,1.59505 -1.48112,2.57487 -0.79753,0.95703 -1.25326,1.59505 -0.43294,0.63802 -1.04817,1.70898 -0.59245,1.07097 -0.91146,1.61784 -0.75195,1.36719 -1.66341,1.36719 -0.88867,0 -1.45833,-1.45833 -0.56967,-1.45834 -1.73178,-4.92188 -1.13932,-3.48632 -1.80012,-4.96744 -0.66081,-1.50391 -5.44597,-13.83138 -14.12759,-36.34439 -14.58332,-36.34439 h -2.89388 q -1.43555,0 -1.59505,-0.52408 -0.15951,-0.54688 -0.15951,-1.38998 0,-0.86588 0.36458,-1.13932 0.38737,-0.29622 1.38998,-0.29622 l 8.79557,0.27343 12.12239,-0.27343 q 0.97982,0 1.27604,0.38737 0.31901,0.36458 0.31901,1.43554 0,1.07097 -0.38737,1.29883 -0.36458,0.22786 -1.57227,0.22786 h -6.53971 v 0.20508 q 0,1.70899 1.84571,6.88151 8.08919,22.85481 11.80338,32.58462 3.71419,9.70703 4.12434,9.70703 0.41016,0 1.64063,-3.1901 1.23047,-3.1901 3.64583,-9.34245 2.43815,-6.17512 4.32943,-11.097 1.91406,-4.92187 3.94205,-10.36783 4.32943,-11.52995 4.32943,-13.44401 0,-1.93685 -0.56966,-1.93685 h -6.63086 q -1.52669,0 -1.75456,-0.54687 -0.20508,-0.54687 -0.20508,-1.36719 0,-0.8431 0.31901,-1.13932 0.3418,-0.29622 1.36719,-0.29622 z"
       style="font-family:'Fanwood Text';-inkscape-font-specification:'Fanwood Text'"
       id="path236" />
    <path
       d="m 274.80104,139.34194 -4.46615,0.18229 q -0.8431,0 -0.8431,-0.3418 0,-0.36458 0.3418,-1.32161 0.36458,-0.95703 0.66081,-1.09375 0.31901,-0.13672 1.23047,-0.13672 l 10.55012,-0.45573 q 0.63802,0 0.77474,0.18229 0.15951,0.15951 0.15951,0.66081 v 15.85937 q 0,16.70247 0.47851,16.70247 h 4.01042 q 0.77474,0 0.93424,0.31901 0.18229,0.29622 0.18229,1.1621 0,0.8431 -0.20507,1.20769 -0.20508,0.38737 -0.91146,0.38737 l -8.04362,-0.1823 -8.5677,0.1823 q -0.77474,0 -0.95703,-0.3418 -0.1823,-0.3418 -0.1823,-1.1849 0,-0.84309 0.25065,-1.18489 0.27344,-0.36458 1.16211,-0.36458 h 4.67123 q 0.27343,0 0.27343,-9.95768 0,-9.98047 -0.20508,-14.74284 -0.18229,-4.76236 -0.27343,-5.01302 -0.0684,-0.27343 -0.22787,-0.38736 -0.20508,-0.13672 -0.47851,-0.13672 z m 4.07877,-14.65169 q -1.93685,0 -3.14453,-1.04818 -1.20768,-1.07096 -1.20768,-2.89388 0,-1.82291 1.0026,-3.12174 1.91407,-2.46094 4.26107,-2.46094 4.80794,0 4.80794,4.03321 0,2.36979 -1.89127,3.94205 -1.86849,1.54948 -3.82813,1.54948 z"
       style="font-family:'Fanwood Text';-inkscape-font-specification:'Fanwood Text'"
       id="path238" />
    <path
       d="m 322.288,173.49882 0.0911,-3.3496 q 0,-0.70638 -1.02539,-0.0912 -5.85612,3.64583 -11.2793,3.64583 -10.7552,0 -14.85676,-8.79557 -1.8457,-3.94205 -1.8457,-8.74999 0,-4.80794 1.48112,-8.29427 1.48111,-3.48633 4.01041,-5.97005 5.49153,-5.35482 13.71744,-5.35482 4.42057,0 9.04622,2.11914 0.52409,0.22787 0.6836,0.22787 0.18229,0 0.18229,-3.55469 0,-3.55468 -0.3418,-13.19335 -0.31901,-9.66146 -0.70638,-9.66146 l -6.24348,0.82031 q -0.61524,0 -0.47852,-0.91145 0.13672,-0.91146 0.1595,-1.13933 0.0456,-0.25065 0.0456,-0.34179 0.0228,-0.0911 0.0456,-0.22787 0.0456,-0.1595 0.0684,-0.20508 0.0456,-0.0684 0.0912,-0.13671 0.0456,-0.0911 0.13671,-0.11394 0.15951,-0.0456 1.54948,-0.20507 1.41276,-0.15951 4.51172,-0.59245 3.09896,-0.43294 5.01302,-0.70638 1.93685,-0.27344 2.48372,-0.27344 0.56966,0 0.56966,1.04818 0,1.04817 -0.13672,6.47135 -0.43294,17.18098 -0.43294,30.14647 0,12.94271 0.11393,17.79622 0.13672,4.85351 0.52409,5.78776 0.38737,0.91146 1.59505,0.91146 0.11394,0 0.75196,-0.0911 l 1.43554,-0.20508 q 0.79753,-0.11393 1.20768,-0.20508 0.91146,-0.1595 0.91146,0.54688 0,0.68359 -0.0228,1.0026 0,0.29623 -0.0684,0.6836 -0.15951,0.75195 -0.75196,0.79752 -11.02864,1.48112 -11.50715,1.48112 -0.45573,0 -0.59245,-0.22786 -0.13672,-0.22787 -0.13672,-0.88868 z m -19.30012,-27.89061 q -1.11654,1.95963 -1.6862,4.28385 -0.56966,2.30143 -0.56966,5.19531 0,2.8711 0.79753,5.5599 0.79752,2.66601 2.43815,4.71679 3.41796,4.30664 10.66405,4.30664 2.07357,0 4.96745,-0.93424 2.89388,-0.93425 2.89388,-1.84571 v -23.33332 q 0,-0.86589 -1.8457,-2.14193 -3.55469,-2.43815 -6.42578,-2.43815 -2.84831,0 -4.92188,0.8431 -2.07356,0.8431 -3.62304,2.32422 -1.54948,1.48112 -2.6888,3.46354 z"
       style="font-family:'Fanwood Text';-inkscape-font-specification:'Fanwood Text'"
       id="path240" />
    <path
       d="m 344.11742,113.11473 -5.51432,0.66081 q -0.54687,0 -0.54687,-1.25325 0,-1.27605 0.0911,-1.54948 0.11393,-0.29623 2.23307,-0.59245 2.14193,-0.31901 6.81315,-0.88867 4.69401,-0.56966 5.2181,-0.56966 0.52409,0 0.63802,0.25065 0.11393,0.25065 0.11393,0.72916 0,0.45573 -0.18229,5.0586 -0.56966,14.42382 -0.56966,19.68749 0,5.26367 0.0456,5.33203 0.0456,0.0456 1.59505,-0.79753 1.54948,-0.8431 5.14974,-2.00521 3.62305,-1.18489 6.12956,-1.18489 2.50651,0 4.28385,0.56966 1.80013,0.56966 3.0306,1.50391 1.23047,0.93424 2.11914,2.41536 0.91145,1.48112 1.43554,3.0306 0.52409,1.54948 0.8431,3.66862 0.47852,3.3496 0.47852,8.2259 v 7.92969 q 0,6.24349 0.29622,6.24349 h 3.16732 q 0.8431,0 1.07096,0.34179 0.22787,0.3418 0.22787,1.16211 0,1.57227 -1.29883,1.57227 l -6.9043,-0.1823 -8.2259,0.1823 q -0.88868,0 -1.09375,-0.3418 -0.20508,-0.31901 -0.20508,-1.16211 0,-0.86588 0.20508,-1.20768 0.20507,-0.36458 0.91145,-0.36458 h 4.48893 q 0.45573,0 0.45573,-9.5931 0,-9.61588 -0.31901,-11.39322 -0.31901,-1.80013 -1.0026,-3.30404 -0.68359,-1.52669 -1.6862,-2.62044 -2.14192,-2.30143 -6.06119,-2.30143 -3.89649,0 -7.81576,1.95963 -1.32161,0.66081 -1.32161,1.11654 0.11393,16.99869 0.11393,21.57877 0,4.55729 0.36459,4.55729 h 4.28385 q 0.82031,0 1.02539,0.34179 0.20508,0.31901 0.20508,0.95703 0,0.61524 -0.0228,0.82032 -0.0228,0.20507 -0.13672,0.45572 -0.20508,0.50131 -1.07096,0.50131 l -8.02083,-0.1823 -8.20312,0.1823 q -1.20769,0 -1.29883,-0.86589 -0.0228,-0.22786 -0.0228,-0.70638 0,-1.5039 1.41276,-1.5039 h 4.01042 q 0.36458,0 0.36458,-13.2845 0,-27.61718 -0.41016,-35.22786 -0.41015,-7.61067 -0.5013,-7.77018 -0.0911,-0.18229 -0.38737,-0.18229 z"
       style="font-family:'Fanwood Text';-inkscape-font-specification:'Fanwood Text'"
       id="path242" />
    <path
       d="m 388.34592,200.02225 q -1.95964,0 -1.95964,-2.16471 0,-1.52669 1.86849,-4.10156 0.82031,-1.16211 1.98242,-1.54948 1.16211,-0.38737 2.11914,-0.70638 0.97982,-0.31901 1.64063,-0.56966 0.68359,-0.22787 1.59505,-0.63802 0.93424,-0.38737 1.57226,-0.77474 1.5267,-0.93425 2.00521,-2.09635 4.10156,-10.07162 4.10156,-10.96029 0,-0.86588 -2.64323,-7.33723 -2.62044,-6.47136 -6.722,-16.17838 -4.10156,-9.72982 -4.83073,-11.50716 -0.72916,-1.77734 -0.86588,-1.93685 -0.13672,-0.1595 -0.61524,-0.1595 h -1.86848 q -1.09375,0 -1.1849,-0.8431 -0.0228,-0.20508 -0.0228,-0.63802 0,-1.59505 1.20769,-1.59505 l 7.20051,0.18229 8.20313,-0.18229 q 0.91145,0 1.20768,0.38737 0.29622,0.36458 0.29622,1.20768 0,1.48112 -1.41276,1.48112 h -1.77734 q -2.14193,0 -2.14193,0.6608 0,1.04818 2.93945,9.11458 2.93946,8.04362 4.23828,11.25651 1.32162,3.1901 1.54948,3.73698 0.22787,0.52409 0.36459,0.8431 0.13671,0.29622 0.27343,0.59244 0.29623,0.59245 0.45573,0.59245 0.18229,0 1.29883,-2.98502 7.54231,-22.14843 7.54231,-23.24218 0,-0.56966 -1.66341,-0.56966 h -3.28124 q -1.09375,0 -1.1849,-0.8431 -0.0228,-0.20508 -0.0228,-0.61524 0,-0.43294 0.0228,-0.6608 0.0456,-0.25065 0.1595,-0.50131 0.22787,-0.45572 1.11654,-0.45572 l 6.26627,0.18229 5.40039,-0.18229 q 0.72917,0 0.97982,0.36458 0.25065,0.3418 0.25065,1.0026 0,0.66081 -0.0228,0.86589 -0.0228,0.20508 -0.11393,0.43294 -0.1595,0.41016 -0.97981,0.41016 h -1.41276 q -0.8431,0 -1.11654,0.75195 -0.97982,2.6888 -6.26627,16.24674 -5.28646,13.53515 -5.78776,14.74283 -0.47852,1.20768 -1.00261,2.75716 -1.66341,4.94466 -2.43815,7.15495 -0.77474,2.23307 -1.13932,3.25846 -0.3418,1.02539 -0.43294,1.23047 -0.0684,0.20508 -0.38737,1.02539 -0.29622,0.82031 -0.43294,1.04817 -0.11394,0.25065 -0.43295,0.93425 -0.29622,0.68359 -0.52408,1.02539 -0.22787,0.3418 -0.61524,0.97982 -0.36458,0.63802 -0.75195,1.1621 -0.75195,1.00261 -1.43555,1.84571 -0.68359,0.86588 -1.0026,1.25325 -0.29623,0.41016 -0.36458,0.5013 -0.0684,0.0911 -0.31901,0.36459 -0.22787,0.29622 -0.3418,0.36458 -0.0912,0.0911 -0.31901,0.29622 -0.22787,0.22787 -0.41016,0.31901 -0.1595,0.11394 -0.45573,0.29623 -0.45573,0.29622 -3.41796,1.70898 -2.93946,1.41276 -3.73698,1.41276 z"
       style="font-family:'Fanwood Text';-inkscape-font-specification:'Fanwood Text'"
       id="path244" />
    <path
       d="m 456.36346,147.18048 -0.54687,19.04947 q 0,1.77734 1.27604,2.39257 0.25065,0.11394 0.54687,0.11394 0.29623,0 1.91406,-1.16211 1.64063,-1.16211 1.82292,-1.16211 0.18229,0 0.75195,0.72917 0.59245,0.70638 0.59245,0.97981 0,0.25065 -0.63802,0.72917 -0.61523,0.47851 -2.02799,1.5039 -1.38998,1.02539 -3.23568,2.3698 -1.8457,1.3444 -2.66601,1.3444 -0.82032,0 -1.41276,-0.22787 -0.56967,-0.22786 -0.91146,-0.54687 -0.3418,-0.29623 -0.66081,-0.82032 -0.29622,-0.52408 -0.43294,-0.88867 -0.13672,-0.36458 -0.3418,-0.97981 -0.18229,-0.61524 -0.31901,-1.00261 -0.20508,-0.61523 -0.97982,-0.11393 -6.92708,4.30664 -11.43879,4.30664 -4.51172,0 -7.04102,-2.23307 -2.52929,-2.25586 -2.52929,-5.99284 0,-4.19271 3.46354,-7.13216 3.44075,-2.91666 7.04101,-4.14713 5.74219,-1.93685 10.68684,-2.80274 0.45573,-0.0911 0.45573,-1.45833 0,-1.36719 -0.0228,-2.25586 -0.0228,-0.88867 -0.11393,-2.27864 -0.0911,-1.41276 -0.31902,-2.21029 -0.20507,-0.82031 -0.56966,-1.86849 -0.34179,-1.07096 -0.93424,-1.66341 -0.59245,-0.61523 -1.38997,-1.18489 -1.48112,-1.09375 -3.78255,-1.09375 -2.27865,0 -3.85091,0.6608 -1.54948,0.63803 -2.00521,1.84571 -0.43294,1.18489 -0.43294,3.46354 0,2.27864 -0.91146,2.89388 -0.88867,0.61523 -2.84831,1.61783 -1.95963,1.00261 -2.32422,1.00261 -0.8431,0 -0.8431,-2.00521 0,-2.02799 0.91146,-4.05599 0.91146,-2.05078 2.41537,-3.50911 1.5039,-1.48112 3.39518,-2.55208 3.75976,-2.16472 7.15494,-2.16472 3.41797,0 5.58268,0.59245 2.16472,0.59245 3.57747,1.66341 1.41276,1.04818 2.30144,2.64323 1.64062,2.91667 1.64062,7.61068 z m -21.1914,15.76822 q 0,1.5039 0.63802,2.89388 0.66081,1.36718 2.00521,2.32422 1.36719,0.95703 3.07617,0.95703 1.73177,0 3.85091,-0.52409 4.99023,-1.23047 4.99023,-2.09636 v -12.21353 q 0,-0.75196 -0.22786,-0.75196 -0.20508,0 -1.02539,0.15951 -13.30729,2.59766 -13.30729,9.2513 z"
       style="font-family:'Fanwood Text';-inkscape-font-specification:'Fanwood Text'"
       id="path246" />
  </g>
</svg>
